<?xml version="1.0" encoding="UTF-8" standalone="no"?><!DOCTYPE svg PUBLIC "-//W3C//DTD SVG 1.1//EN" "https://www.w3.org/Graphics/SVG/1.1/DTD/svg11.dtd"><svg width="100%" height="100%" viewBox="0 0 369 293" version="1.1" xmlns="http://www.w3.org/2000/svg" xmlns:xlink="http://www.w3.org/1999/xlink" xml:space="preserve" style="fill-rule:evenodd;clip-rule:evenodd;stroke-linejoin:round;stroke-miterlimit:2;"><path d="M177.928,105.802c32.395,-15.34 59.331,-50.381 110.06,-50.38c12.8,0 39.604,8.857 49.604,16.723c50.586,39.788 33.557,129.819 -6.844,165.799c-26.62,23.706 -60.947,35.337 -91.209,44.473c-31.854,9.617 -62.327,11.364 -95.693,10.258c-54.559,-1.807 -121.655,-28.796 -121.436,-93.356c0.105,-30.921 12.147,-65.032 44.81,-73.432c31.203,-8.024 80.488,-5.775 110.708,-20.085Z" style="fill:#5884c6;fill-opacity:0.2;fill-rule:nonzero;"/><path d="M270.153,160.447c1.847,3.025 1.597,6.549 0.458,9.61c-2.514,6.762 -9.32,12.051 -17.63,13.705c2.443,1.597 4.951,3.253 6.549,5.457c1.597,2.206 2.075,5.124 0.351,7.03c-1.443,1.594 -4.009,2.129 -6.399,2.575c-6.901,1.286 -13.801,2.571 -20.702,3.858c-1.257,0.235 -2.731,0.651 -2.927,1.717c-0.295,1.611 2.359,2.457 4.03,3.469c4.083,2.473 2.735,7.811 -0.549,10.56c-5.792,4.848 -17.15,10.187 -25.708,10.071c-10.454,-0.144 -29.856,-6.294 -29.856,-6.294c5.288,-9.763 23.836,-45.912 25.416,-48.346c1.579,-2.436 5.515,-4.013 8.534,-2.419c3.011,1.59 3.244,5.017 4.346,7.796c1.102,2.779 5.642,5.48 7.626,3.285c0.636,-0.702 0.688,-1.67 0.745,-2.578c0.451,-7.137 2.623,-14.078 6.351,-20.299c0.975,-1.625 2.433,-3.392 4.69,-3.359c4.592,0.067 5.138,6.529 9.355,8.345c3.143,1.355 6.598,-0.575 8.572,-2.765c1.973,-2.19 3.638,-4.899 6.831,-5.717c3.681,-0.945 8.071,1.272 9.917,4.299Z" style="fill:#5884c6;fill-opacity:0.4;fill-rule:nonzero;"/><path d="M264.362,161.72c-0.194,-0.062 -0.41,0.025 -0.482,0.191c-2.808,6.541 -9.081,13.764 -18.647,21.469c-3.176,2.558 -6.72,5.169 -10.601,7.823c5.579,-10.49 1.584,-30.163 1.403,-31.031c-0.036,-0.173 -0.23,-0.29 -0.436,-0.259c-0.202,0.027 -0.341,0.197 -0.304,0.371c0.045,0.22 4.469,21.994 -2.07,31.872c-5.138,3.452 -10.845,6.97 -17.089,10.529c-7.243,4.129 -14.316,7.799 -20.386,10.8c6.594,-7.793 9.547,-17.535 10.866,-24.505c1.504,-7.958 1.263,-14.121 1.261,-14.183c-0.007,-0.177 -0.182,-0.315 -0.39,-0.309c-0.206,0.007 -0.37,0.155 -0.363,0.332c0.011,0.243 0.87,24.401 -13.037,39.483c-9.659,4.726 -16.399,7.587 -16.51,7.635c-0.187,0.077 -0.262,0.27 -0.17,0.429c0.08,0.138 0.26,0.206 0.429,0.169c0.025,-0.006 0.051,-0.013 0.075,-0.024c0.111,-0.046 6.826,-2.897 16.462,-7.609c11.338,2.984 20.677,2.212 26.524,1.033c0.229,-0.046 0.455,-0.093 0.677,-0.142c5.955,-1.283 9.329,-3.125 9.475,-3.205c0.174,-0.096 0.223,-0.295 0.111,-0.444c-0.113,-0.148 -0.346,-0.191 -0.52,-0.095c-0.037,0.021 -3.69,2.013 -9.951,3.268c-5.633,1.132 -14.564,1.877 -25.419,-0.854c6.267,-3.082 13.679,-6.911 21.278,-11.241c6.257,-3.566 11.977,-7.093 17.13,-10.554c0.01,-0.003 0.019,-0.005 0.03,-0.007c8.377,-1.806 23.761,-0.365 23.916,-0.35c0.046,0.004 0.091,0.001 0.134,-0.008c0.148,-0.031 0.263,-0.139 0.281,-0.275c0.023,-0.176 -0.125,-0.335 -0.331,-0.355c-0.148,-0.014 -13.98,-1.311 -22.69,0.088c3.93,-2.684 7.516,-5.327 10.729,-7.914c9.653,-7.774 15.992,-15.08 18.84,-21.716c0.072,-0.166 -0.029,-0.351 -0.225,-0.412Z" style="fill:#385F9A;fill-rule:nonzero;"/><path d="M78.451,147.688c-15.545,-20.059 -37.134,-35.433 -60.814,-39.567c2.374,9.9 9.917,30.918 12.697,36.336c2.604,0.53 14.005,0.972 18.661,1.732c-3.464,1.759 -14.024,6.82 -14.601,7.863c1.683,6.878 21.522,35.175 33.07,47.443c11.549,12.267 25.663,22.339 41.372,25.932c-1.929,-22.998 -14.84,-59.68 -30.385,-79.739Z" style="fill:#5884c6;fill-opacity:0.4;fill-rule:nonzero;"/><path d="M105.24,224.361c-0.07,-0.118 -3.748,-6.355 -9.628,-15.813l3.858,-12.348l-0.507,-0.2l-3.731,11.937c-1.578,-2.535 -3.308,-5.29 -5.165,-8.213l3.328,-16.69l-0.523,-0.14l-3.224,16.169c-1.499,-2.358 -3.076,-4.819 -4.72,-7.356l4.051,-18.007l-0.52,-0.155l-3.944,17.526c-1.578,-2.433 -3.215,-4.934 -4.899,-7.481l4.495,-21.503l-0.523,-0.144l-4.392,21.013c-1.312,-1.98 -2.652,-3.985 -4.016,-6.005c-0.763,-1.132 -1.521,-2.25 -2.276,-3.356l3.474,-22.962l-0.529,-0.11l-3.391,22.418c-2.323,-3.4 -4.601,-6.675 -6.829,-9.822l4.376,-21.623l-0.523,-0.141l-4.282,21.158c-1.806,-2.545 -3.578,-5.003 -5.316,-7.374l1.558,-20.24l-0.533,-0.067l-1.513,19.641c-2.476,-3.367 -4.882,-6.557 -7.212,-9.558l-0.219,-16.622l-0.535,-0.011l0.21,15.934c-1.106,-1.42 -2.195,-2.796 -3.265,-4.129c-1.445,-1.798 -2.857,-3.515 -4.236,-5.155l-1.684,-15.203l-0.532,0.048l1.598,14.422c-7.916,-9.341 -14.718,-16.011 -20.268,-19.866l-0.279,0.481c5.928,4.118 12.869,11.198 20.043,19.657l-13.675,-4.402l-0.137,0.551l14.503,4.669c5.113,6.08 10.332,12.832 15.377,19.691l-19.035,1.814l0.065,0.574l19.368,-1.846c1.817,2.477 3.61,4.965 5.367,7.439l-18.83,2.867l0.092,0.57l19.112,-2.909c2.458,3.47 4.842,6.906 7.115,10.236l-0.089,0.594l-19.964,2.842l0.089,0.571l20.342,-2.896l0.069,-0.456c0.664,0.976 1.319,1.942 1.963,2.896c1.424,2.11 2.823,4.204 4.191,6.27l-18.57,3.215l0.103,0.569l18.816,-3.258c1.742,2.635 3.434,5.221 5.061,7.733l-0.063,0.283l-17.246,2.589l0.092,0.57l17.592,-2.64l0.037,-0.164c1.597,2.469 3.131,4.863 4.589,7.157l-14.329,4.306l0.161,0.555l14.49,-4.355c1.872,2.949 3.615,5.727 5.203,8.279l-11.68,2.747l0.132,0.562l11.87,-2.791c5.859,9.425 9.523,15.636 9.592,15.754l0.45,-0.296Z" style="fill:#385F9A;fill-rule:nonzero;"/><path d="M91.984,197.588c-1.786,-2.206 -5.344,-3.891 -8.308,-3.28c-1.907,0.392 -3.49,3.018 -4.75,3.208c-5.201,0.787 -8.913,-7.368 -12.087,-11.351c-3.302,-4.145 -9.634,-12.839 -15.53,-6.723c-4.609,4.783 -0.368,10.39 -8.238,3.902c-10.009,-8.251 -25.762,-11.89 -38.367,-7.407c-9.562,3.401 -2.567,7.366 3.542,9.245c3.84,1.183 18.487,2.419 15.89,8.159c-1.529,3.38 -16.334,2.32 -10.407,8.48c3.345,3.478 22.084,-3.055 23.641,0.952c1.561,4.017 -5.493,6.362 -4.44,10.369c1.772,6.741 14.858,2.773 19.587,2.493c9.295,-0.55 8.058,2.263 11.886,8.413c3.28,5.268 30.847,5.808 34.361,4.143c2.496,-7.075 -3.752,-26.861 -6.78,-30.603Z" style="fill:#5884c6;fill-opacity:0.6;fill-rule:nonzero;"/><path d="M98.827,227.79c-0.067,-0.071 -4.268,-4.483 -11.388,-10.574c-2.636,-5.31 -1.11,-18.632 -1.094,-18.767c0.014,-0.124 -0.081,-0.236 -0.214,-0.249c-0.133,-0.013 -0.252,0.078 -0.267,0.201c-0.062,0.526 -1.407,12.28 0.754,18.117c-4.127,-3.494 -9.16,-7.486 -14.887,-11.503c-1.537,-1.08 -3.075,-2.121 -4.612,-3.135c-0.013,-0.011 -0.027,-0.021 -0.043,-0.028c-4.167,-2.746 -8.333,-5.251 -12.475,-7.504c-0.389,-8.41 0.829,-14.27 0.842,-14.328c0.026,-0.122 -0.059,-0.241 -0.19,-0.266c-0.131,-0.024 -0.258,0.057 -0.284,0.18c-0.013,0.058 -1.214,5.832 -0.864,14.143c-3.669,-1.979 -7.318,-3.76 -10.933,-5.334c-11.728,-5.102 -23.124,-8.023 -33.871,-8.685c-0.133,-0.009 -0.249,0.086 -0.259,0.211c-0.009,0.125 0.091,0.233 0.224,0.242c15.801,0.971 31.068,6.784 43.937,13.629c-7.687,-0.416 -29.97,2.996 -30.969,3.151c-0.132,0.02 -0.222,0.137 -0.201,0.259c0.019,0.117 0.129,0.197 0.251,0.191c0.009,-0.001 0.017,-0.002 0.026,-0.004c0.257,-0.039 25.628,-3.926 31.914,-3.049c4.351,2.355 8.417,4.819 12.122,7.24c-14.972,2.733 -28.682,10.52 -28.821,10.6c-0.114,0.066 -0.151,0.206 -0.082,0.313c0.048,0.072 0.134,0.111 0.22,0.106c0.039,-0.001 0.077,-0.012 0.112,-0.032c0.14,-0.081 14.058,-7.987 29.124,-10.625c1.58,1.041 3.093,2.073 4.533,3.083c5.832,4.09 10.943,8.155 15.106,11.69c-11.257,-0.721 -21.451,3.902 -21.555,3.951c-0.12,0.054 -0.17,0.19 -0.112,0.303c0.044,0.084 0.136,0.131 0.231,0.127c0.031,-0.003 0.062,-0.01 0.092,-0.024c0.105,-0.048 10.557,-4.788 21.928,-3.86c7.093,6.068 11.276,10.461 11.342,10.532c0.051,0.053 0.124,0.079 0.194,0.075c0.054,-0.002 0.106,-0.022 0.148,-0.057c0.1,-0.084 0.109,-0.227 0.021,-0.32Z" style="fill:#385F9A;fill-rule:nonzero;"/><path d="M135.356,149.97c-13.828,-20.543 -36.473,-38.196 -64.819,-46.469c0.229,9.095 3.829,28.896 5.797,34.165c3.097,0.975 17.17,3.609 22.758,5.189c-4.797,0.85 -19.341,3.177 -20.347,3.972c0.2,6.326 17.105,34.893 28.103,47.859c11,12.967 25.798,24.526 44.368,30.754c3.935,-20.418 -2.033,-54.926 -15.86,-75.47Z" style="fill:#5884c6;fill-opacity:0.6;fill-rule:nonzero;"/><path d="M148.094,196.401l-0.446,-0.306l-8.015,9.762c-1.277,-2.542 -2.685,-5.312 -4.208,-8.257l8.733,-13.871l-0.483,-0.254l-8.54,13.564c-1.231,-2.378 -2.534,-4.866 -3.899,-7.437l9.996,-14.876l-0.476,-0.266l-9.809,14.598c-1.31,-2.461 -2.675,-4.994 -4.089,-7.576l11.512,-17.835l-0.481,-0.259l-11.329,17.551c-1.107,-2.02 -2.242,-4.067 -3.404,-6.133c-0.636,-1.132 -1.27,-2.25 -1.901,-3.357l10.643,-19.307l-0.497,-0.229l-10.463,18.979c-1.977,-3.457 -3.928,-6.793 -5.853,-10.007l11.396,-17.96l-0.483,-0.256l-11.227,17.694c-1.566,-2.607 -3.114,-5.13 -4.643,-7.567l7.511,-17.312l-0.52,-0.187l-7.346,16.933c-2.179,-3.465 -4.32,-6.755 -6.415,-9.863l4.303,-14.51l-0.54,-0.132l-4.166,14.047c-1.016,-1.501 -2.023,-2.96 -3.018,-4.373c-1.302,-1.851 -2.584,-3.622 -3.848,-5.321l2.091,-13.564l-0.554,-0.07l-2.004,13.008c-7.324,-9.771 -13.99,-16.97 -19.864,-21.444l-0.358,0.393c6.255,4.764 12.955,12.313 19.565,21.114l-15.947,-6.587l-0.232,0.466l16.787,6.933c4.691,6.305 9.328,13.216 13.718,20.186l-24.269,-2.18l-0.058,0.509l24.669,2.216c1.581,2.517 3.129,5.041 4.636,7.543l-24.298,-1.219l-0.032,0.511l24.647,1.236c2.105,3.509 4.128,6.975 6.041,10.326l-0.277,0.501l-25.7,-1.463l-0.036,0.51l26.068,1.485l0.262,-0.477c0.581,1.021 1.153,2.031 1.713,3.027c1.19,2.115 2.352,4.211 3.484,6.276l-24.068,-0.862l-0.024,0.512l24.378,0.872c1.444,2.641 2.838,5.228 4.172,7.738l-0.16,0.239l-22.243,-1.149l-0.033,0.512l22.409,1.157l0.167,0.008l0.149,-0.222c1.326,2.499 2.592,4.918 3.791,7.232l-19.075,0.929l0.028,0.511l19.304,-0.94c1.52,2.941 2.926,5.708 4.202,8.246l-15.353,0.092l0.001,0.511l15.608,-0.093c4.704,9.379 7.558,15.522 7.611,15.638l0.515,-0.202c-0.055,-0.115 -2.912,-6.267 -7.622,-15.658l8.196,-9.984Z" style="fill:#385F9A;fill-rule:nonzero;"/><path d="M246.168,102.417c3.608,-3.271 7.218,-6.541 10.826,-9.812c2.002,-1.814 3.992,-4.57 1.764,-6.987c-1.025,-1.112 -2.66,-1.735 -4.209,-2.126c-8.636,-2.18 -16.447,0.873 -23.218,3.991c-0.958,0.44 -2.029,0.897 -3.256,0.653c-5.191,-1.028 -1.092,-9.052 -5.996,-11.279c-1.664,-0.756 -3.445,-0.272 -4.823,0.359c-13.79,6.323 -12.933,22.864 -15.39,36.325c-0.608,3.335 -2.886,7.242 -7.238,6.156c-4.006,-0.999 -7.082,-5.907 -10.792,-5.327c-1.712,0.267 -2.49,1.685 -3.025,3.005c-3.137,7.744 -3.911,16.466 -2.248,25.325c0.675,3.595 0.523,8.503 -3.86,8.208c-1.838,-0.125 -3.769,-1.293 -5.513,-1.097c-2.174,0.244 -2.703,2.378 -2.73,4.212c-0.306,21.66 7.757,51.868 5.03,72.994c-0,0 25.001,-12.544 34.383,-15.367c5.333,-1.604 11.394,-4.162 10.76,-9.195c-0.512,-4.063 -5.338,-7.729 -6.613,-11.816c-1.544,-4.955 2.58,-8.97 7.474,-10.987c4.893,-2.015 10.747,-2.808 15.2,-5.321c4.455,-2.514 7.154,-7.719 3.737,-12.329c-2.486,-3.355 -7.577,-5.557 -9.144,-9.127c-1.711,-3.898 1.798,-7.148 5.786,-8.618c3.987,-1.47 8.78,-2.068 11.734,-4.589c2.955,-2.522 2.533,-8.136 -2.125,-9.992c-2.281,-0.91 -5.611,-1.179 -6.168,-3.108c-0.223,-0.769 0.208,-1.445 0.727,-1.98c2.993,-3.09 8.691,-3.463 13.341,-4.894c4.652,-1.433 8.719,-5.458 5.867,-9.649c-2.228,-3.272 -7.398,-4.635 -10.281,-7.628Z" style="fill:#5884c6;fill-opacity:0.9;fill-rule:nonzero;"/><path d="M221.039,114.323c0.472,-0.686 0.944,-1.355 1.417,-2.016c-6.185,-13.338 -4.449,-27.984 -4.429,-28.136l0.688,0.207c-0.018,0.147 -1.695,14.3 4.175,27.323c9.496,-13.108 18.972,-20.927 28.194,-23.252l0.277,0.682c-9.167,2.312 -18.615,10.167 -28.108,23.356c0.095,0.199 0.191,0.397 0.289,0.595c10.914,-2.483 27.019,0.16 27.181,0.188l0.009,0.691c-0.163,-0.027 -16.417,-2.696 -27.209,-0.127l-0.287,0.068l-0.151,-0.297c-0.088,-0.174 -0.173,-0.347 -0.259,-0.521c-0.397,0.559 -0.794,1.123 -1.192,1.701c-4.069,5.909 -8.145,12.795 -12.2,20.602c11.448,2.492 27.307,-2.27 27.466,-2.319l0.304,0.675c-0.161,0.05 -16.242,4.881 -27.872,2.313l0.021,-0.515c-3.943,7.6 -7.866,16.068 -11.743,25.357c-0.926,2.216 -1.824,4.427 -2.699,6.623c7.504,3.4 35.14,-2.016 35.423,-2.072l0.246,0.689c-1.164,0.231 -28.219,5.531 -35.912,1.991c-5.789,14.593 -10.46,28.521 -13.711,38.907c-0.006,0.137 -0.01,0.274 -0.017,0.41c8.805,-5.821 27.502,-9.039 27.693,-9.071l0.231,0.692c-0.197,0.033 -19.675,3.386 -28.082,9.403l-0.349,0.251c-2.991,9.652 -4.639,15.85 -4.676,15.988l-0.674,-0.289c0.039,-0.145 1.874,-7.038 5.185,-17.622c0.876,-21.32 -7.58,-48.504 -7.667,-48.782l0.659,-0.098c0.084,0.267 7.929,25.48 7.764,46.48c3.223,-10.155 7.662,-23.206 13.072,-36.823c-4.311,-20.282 -9.325,-46.607 -9.375,-46.87l0.681,-0.011c0.048,0.26 4.884,25.648 9.141,45.761c0.785,-1.964 1.591,-3.938 2.417,-5.916c7.906,-18.942 16.008,-34.492 24.079,-46.216Z" style="fill:#385F9A;fill-rule:nonzero;"/><path d="M89.732,72.962c-3.847,-4.438 -7.693,-8.878 -11.541,-13.318c-2.134,-2.462 -4.204,-5.973 -1.59,-8.183c1.202,-1.017 3.059,-1.353 4.807,-1.451c9.743,-0.543 18.288,4.575 25.669,9.534c1.044,0.703 2.212,1.446 3.593,1.444c5.842,-0.012 1.705,-9.865 7.291,-11.275c1.896,-0.479 3.856,0.451 5.359,1.458c15.031,10.072 10.35,29.095 15.2,43.902c2.392,7.302 13.43,-7.151 17.535,-5.691c1.895,0.673 2.686,2.425 3.21,4.015c3.081,9.33 5.995,29.794 3.664,39.315c-0.946,3.866 -1.041,9.375 3.862,10.004c2.056,0.264 4.271,-0.616 6.205,-0.016c2.41,0.748 2.886,3.245 2.816,5.298c-0.823,24.238 -11.438,56.182 -9.534,80.354c-0,-0 -27.197,-19.471 -37.503,-24.674c-5.86,-2.959 -12.479,-7.14 -11.5,-12.617c0.789,-4.422 6.367,-7.454 8.007,-11.738c1.988,-5.191 -2.393,-10.574 -7.74,-13.895c-5.347,-3.32 -11.83,-5.486 -16.66,-9.267c-4.829,-3.779 -7.557,-10.179 -3.501,-14.575c2.951,-3.199 8.745,-4.542 10.685,-8.184c2.116,-3.975 -1.621,-8.37 -5.987,-10.883c-4.365,-2.513 -9.677,-4.229 -12.835,-7.69c-3.158,-3.46 -2.384,-9.633 2.907,-10.684c2.592,-0.516 6.319,-0.089 7.044,-2.119c0.289,-0.808 -0.156,-1.658 -0.704,-2.37c-3.17,-4.102 -9.503,-5.764 -14.61,-8.38c-5.107,-2.617 -9.426,-7.998 -6.02,-12.051c2.659,-3.164 8.496,-3.554 11.871,-6.263Z" style="fill:#5884c6;fill-rule:nonzero;"/><path d="M117.105,91.748c-0.491,-0.868 -0.981,-1.718 -1.472,-2.558c7.613,-13.531 6.465,-30.255 6.452,-30.429l-0.779,0.082c0.013,0.167 1.121,16.327 -6.124,29.576c-9.88,-16.707 -20.023,-27.505 -30.179,-32.119l-0.344,0.701c10.093,4.585 20.203,15.42 30.076,32.214c-0.117,0.202 -0.234,0.402 -0.355,0.601c-12.032,-5.16 -30.127,-5.734 -30.31,-5.74l-0.046,0.77c0.183,0.006 18.445,0.586 30.338,5.814l0.316,0.138l0.184,-0.298c0.107,-0.174 0.213,-0.35 0.316,-0.525c0.414,0.711 0.827,1.428 1.239,2.16c4.217,7.484 8.391,16.061 12.492,25.66c-12.897,0.277 -30.32,-8.51 -30.495,-8.6l-0.375,0.688c0.177,0.089 17.845,9.001 30.948,8.68l0.004,-0.579c3.986,9.345 7.903,19.654 11.727,30.868c0.911,2.675 1.795,5.339 2.652,7.982c-8.549,2.15 -39.066,-9.942 -39.378,-10.068l-0.312,0.717c1.285,0.512 31.16,12.347 39.927,10.082c5.669,17.55 10.127,34.115 13.191,46.418c0,0.153 -0.002,0.308 -0.002,0.461c-9.502,-8.423 -30.171,-16.106 -30.385,-16.185l-0.293,0.722c0.216,0.08 21.752,8.085 30.798,16.639l0.376,0.357c2.815,11.426 4.32,18.703 4.353,18.866l0.766,-0.175c-0.035,-0.171 -1.71,-8.264 -4.831,-20.8c0.171,-23.984 11.059,-52.467 11.172,-52.759l-0.73,-0.254c-0.108,0.281 -10.21,26.698 -11.156,50.169c-3.047,-12.038 -7.293,-27.574 -12.591,-43.954c5.898,-21.688 12.903,-49.966 12.974,-50.251l-0.759,-0.16c-0.069,0.279 -6.826,27.551 -12.652,49.065c-0.771,-2.364 -1.563,-4.743 -2.377,-7.13c-7.795,-22.87 -15.99,-41.995 -24.356,-56.846Z" style="fill:#385F9A;fill-rule:nonzero;"/><path d="M32.797,186.677c-5.083,1.006 -2.379,11.256 -1.788,14.181c0.13,-0.501 10.645,-15.937 1.788,-14.181Z" style="fill:#5884c6;fill-rule:nonzero;"/><path d="M24.988,196.941c-2.363,-1.319 -11.101,-5.054 -9.174,-0.693c1.454,3.289 11.327,4.367 14.776,3.992c-2.082,-0.93 -3.95,-2.029 -5.602,-3.299Z" style="fill:#5884c6;fill-rule:nonzero;"/><path d="M41.668,193.206c-4.121,-1.635 -5.381,2.494 -5.812,4.225c-1.026,4.125 1.094,7.604 4.251,11.569c1.132,-3.381 9.52,-12.635 1.561,-15.794Z" style="fill:#5884c6;fill-rule:nonzero;"/><path d="M63.544,222.374c-6.153,-1.068 -21.621,-5.848 -23.448,-0.769c-0.99,2.752 5.653,3.551 8.403,3.822c6.241,0.613 10.59,-0.664 15.161,-2.63c-0.033,-0.143 -0.074,-0.284 -0.116,-0.423Z" style="fill:#5884c6;fill-rule:nonzero;"/><path d="M34.911,206.776c-3.097,-1.095 -17.48,-6.003 -18.803,-2.79c-2.025,4.922 21.212,4.598 24.156,5.235c-1.663,-0.953 -3.448,-1.769 -5.353,-2.445Z" style="fill:#5884c6;fill-rule:nonzero;"/><path d="M47.9,200.031c-9.801,0.994 -1.166,13.045 3.214,16.148c-1.161,-1.463 5.895,-17.072 -3.214,-16.148Z" style="fill:#5884c6;fill-rule:nonzero;"/><path d="M63.381,221.649c-0.454,-2.579 4.435,-15.215 -3.916,-14.676c-9.45,0.609 -0.523,11.863 3.962,14.961c-0.02,-0.093 -0.036,-0.188 -0.046,-0.285Z" style="fill:#5884c6;fill-rule:nonzero;"/><path d="M35.883,213.318c-4.205,0.058 -9.103,2.265 -3.919,4.727c5.228,2.484 13.457,-2.169 18.42,-2.288c-4.509,-1.855 -9.719,-2.505 -14.501,-2.439Z" style="fill:#5884c6;fill-rule:nonzero;"/><path d="M63.396,221.76c-2.909,-1.178 -5.748,-2.532 -8.524,-3.982c-3.935,-2.056 -7.758,-4.328 -11.436,-6.805c-3.076,-2.072 -6.088,-4.285 -8.815,-6.797c-3.161,-2.909 -5.641,-6.461 -7.784,-10.15c-1.257,-2.165 -2.395,-4.395 -3.513,-6.633c-1.182,-2.362 -2.699,-5.008 -2.396,-7.742c0.05,-0.45 -0.648,-0.618 -0.699,-0.165c-0.328,2.964 1.203,5.718 2.487,8.287c1.309,2.617 2.644,5.223 4.163,7.727c2.168,3.575 4.69,6.926 7.83,9.719c2.885,2.565 6.041,4.838 9.265,6.966c6.15,4.059 12.73,7.735 19.643,10.442c-0.078,-0.289 -0.177,-0.57 -0.221,-0.867Z" style="fill:#5884c6;fill-rule:nonzero;"/><path d="M22.589,177.779c5.913,1.783 2.744,12.276 3.341,15.392c-1.417,-1.672 -12.833,-18.255 -3.341,-15.392Z" style="fill:#5884c6;fill-rule:nonzero;"/><path d="M48.994,215.458c-0.126,-0.006 -12.67,-0.626 -17.382,0.593l0.061,0.229c4.676,-1.21 17.183,-0.592 17.309,-0.585l0.012,-0.237Z" style="fill:#f0f8fc;fill-rule:nonzero;"/><path d="M63.134,222.722l-0.019,-0.237c-0.176,0.015 -17.683,1.365 -21.272,-0.604l-0.116,0.207c3.652,2.003 20.684,0.691 21.407,0.634Z" style="fill:#f0f8fc;fill-rule:nonzero;"/><path d="M39.216,208.728c-0.163,-0.048 -16.42,-4.828 -21.406,-4.658l0.008,0.237c4.947,-0.169 21.167,4.6 21.33,4.648l0.068,-0.227Z" style="fill:#f0f8fc;fill-rule:nonzero;"/><path d="M29.872,199.779c-4.319,-1.129 -12.693,-3.547 -13.469,-4.618l-0.195,0.138c1.02,1.406 13.09,4.575 13.603,4.709l0.061,-0.229Z" style="fill:#f0f8fc;fill-rule:nonzero;"/><path d="M25.454,192.306c-0.021,-0.609 -0.415,-3.344 -1.124,-6.164c-0.712,-2.835 -1.919,-6.48 -3.622,-7.749l-0.144,0.19c3.176,2.365 4.711,13.375 4.652,13.789l0.236,0.042c0.003,-0.02 0.004,-0.056 0.002,-0.108Z" style="fill:#f0f8fc;fill-rule:nonzero;"/><path d="M34.341,187.325l-0.213,-0.106c-2.671,5.267 -3.166,12.526 -3.171,12.599l0.239,0.015c0.005,-0.072 0.497,-7.283 3.145,-12.508Z" style="fill:#f0f8fc;fill-rule:nonzero;"/><path d="M41.396,193.838l-0.218,-0.097c-2.764,6.102 -1.579,13.794 -1.567,13.87l0.236,-0.037c-0.012,-0.077 -1.185,-7.7 1.549,-13.736Z" style="fill:#f0f8fc;fill-rule:nonzero;"/><path d="M50.514,214.784c-0.026,-0.088 -2.58,-8.85 -2.88,-14.1l-0.239,0.013c0.301,5.277 2.863,14.065 2.889,14.153l0.23,-0.066Z" style="fill:#f0f8fc;fill-rule:nonzero;"/><path d="M63.184,221.207c-0.043,-0.083 -4.339,-8.303 -3.94,-13.79l-0.238,-0.017c-0.405,5.555 3.922,13.833 3.966,13.916l0.212,-0.109Z" style="fill:#f0f8fc;fill-rule:nonzero;"/><path d="M62.85,153.42c-1.294,3.042 -0.842,6.745 0.302,10.024c2.527,7.241 8.452,13.233 15.347,15.519c-1.88,1.506 -3.809,3.071 -4.958,5.271c-1.148,2.2 -1.333,5.221 0.208,7.331c1.289,1.765 3.42,2.496 5.402,3.123c5.72,1.807 11.441,3.614 17.16,5.422c1.043,0.329 2.274,0.864 2.509,1.992c0.354,1.706 -1.751,2.414 -3.043,3.359c-3.157,2.314 -1.683,7.99 1.19,11.086c5.066,5.459 14.709,11.806 21.682,12.258c8.518,0.549 23.915,-4.586 23.915,-4.586c-5.001,-10.567 -22.675,-49.631 -24.136,-52.283c-1.459,-2.654 -4.781,-4.568 -7.131,-3.102c-2.345,1.461 -2.295,5.031 -2.999,7.864c-0.703,2.834 -4.217,5.357 -5.99,2.928c-0.567,-0.777 -0.679,-1.794 -0.79,-2.748c-0.869,-7.497 -3.128,-14.904 -6.609,-21.663c-0.909,-1.765 -2.223,-3.71 -4.062,-3.828c-3.741,-0.236 -3.732,6.487 -7.046,8.105c-2.468,1.207 -5.423,-1.044 -7.187,-3.467c-1.764,-2.423 -3.313,-5.369 -5.975,-6.439c-3.069,-1.235 -6.496,0.791 -7.789,3.834Z" style="fill:#5884c6;fill-opacity:0.6;fill-rule:nonzero;"/><path d="M142.717,224.002c-0.095,-0.056 -5.802,-3.505 -14.024,-9.104c-6.487,-8.73 -9.796,-19.735 -11.43,-27.435c-1.776,-8.372 -2.013,-14.754 -2.014,-14.817c-0.007,-0.156 -0.133,-0.283 -0.283,-0.285c-0.151,-0.002 -0.269,0.121 -0.264,0.275c0.003,0.064 0.239,6.488 2.025,14.908c1.571,7.411 4.687,17.86 10.667,26.467c-5.186,-3.56 -11.254,-7.9 -17.497,-12.737c-4.68,-3.627 -9.746,-7.762 -14.716,-12.204c-6.038,-10.805 -3.959,-33.301 -3.937,-33.528c0.014,-0.153 -0.095,-0.295 -0.246,-0.318c-0.15,-0.023 -0.284,0.082 -0.298,0.235c-0.021,0.22 -1.963,21.253 3.364,32.605c-11.231,-10.176 -21.781,-21.855 -26.02,-32.693c-0.058,-0.146 -0.217,-0.223 -0.357,-0.172c-0.138,0.051 -0.206,0.212 -0.149,0.357c2.785,7.12 8.463,15.176 16.874,23.946c2.841,2.961 5.999,6.008 9.449,9.122c-7.194,-2.083 -18.51,-1.648 -18.629,-1.643c-0.15,0.006 -0.261,0.136 -0.247,0.291c0.013,0.154 0.147,0.274 0.296,0.268c0.126,-0.005 12.62,-0.485 19.582,1.983c4.448,3.967 9.365,8.043 14.723,12.194c6.554,5.079 12.917,9.61 18.271,13.268c-8.704,2.161 -16.081,0.777 -20.774,-0.792c-5.204,-1.739 -8.329,-4.07 -8.359,-4.093c-0.125,-0.093 -0.294,-0.069 -0.38,0.053c-0.085,0.122 -0.054,0.298 0.07,0.392c0.032,0.024 3.216,2.402 8.5,4.172c4.853,1.625 12.524,3.058 21.566,0.693c8.2,5.578 13.884,9.014 13.979,9.071c0.085,0.051 0.184,0.052 0.263,0.011c0.044,-0.023 0.08,-0.058 0.106,-0.106c0.071,-0.132 0.022,-0.304 -0.111,-0.384Z" style="fill:#385F9A;fill-rule:nonzero;"/><path d="M103.468,229.261l-2.145,-0c0.37,-5.533 2.643,-9.586 7.593,-14.922c4.594,-4.953 13.152,-1.756 3.97,3.114c-6.134,3.252 -8.063,7.933 -9.418,11.808Z" style="fill:#5884c6;fill-rule:nonzero;"/><path d="M97.223,229.261c-1.176,-6.856 -3.072,-18.931 -7.34,-23.009c-4.876,-4.659 -2.053,-8.795 2.974,-3.634c3.971,4.076 6.543,17.407 5.836,26.643l-1.47,-0Z" style="fill:#5884c6;fill-rule:nonzero;"/><path d="M100.075,229.261l-1.308,-0c-0.633,-3.073 -0.704,-6.892 -0.705,-9.692c-0.004,-4.322 -1.268,-16.586 4.021,-20.038c5.29,-3.453 3.941,1.857 -0.015,13.058c-2.745,7.773 -2.09,11.835 -1.993,16.672Z" style="fill:#5884c6;fill-rule:nonzero;"/><path d="M108.818,211.278c-3.497,3.614 -5.816,12.537 -6.958,17.983l-2.147,-0c-0.401,-5.797 1.746,-14.65 4.277,-18.765c3.371,-5.478 10.02,-4.588 4.828,0.782Z" style="fill:#5884c6;fill-rule:nonzero;"/><path d="M94.307,229.26l2.145,-0c-0.37,-5.533 -2.643,-9.587 -7.593,-14.923c-4.594,-4.953 -13.152,-1.755 -3.97,3.115c6.134,3.252 8.063,7.932 9.418,11.808Z" style="fill:#5884c6;fill-rule:nonzero;"/><path d="M88.958,211.512c3.496,3.616 5.815,12.537 6.957,17.748l2.147,-0c0.401,-5.562 -1.746,-14.414 -4.277,-18.53c-3.371,-5.476 -10.02,-4.588 -4.827,0.782Z" style="fill:#5884c6;fill-rule:nonzero;"/><path d="M102.422,229.301l-0.349,-0.082c1.71,-7.114 5.563,-11.151 8.494,-13.284c3.181,-2.314 5.916,-2.934 6.03,-2.96l0.078,0.346c-0.028,0.006 -2.787,0.634 -5.909,2.91c-2.878,2.098 -6.662,6.068 -8.344,13.07Z" style="fill:#ccedd8;fill-rule:nonzero;"/><path d="M101.113,228.823l-0.357,-0.031c0.867,-9.928 3.304,-15.278 5.195,-18.018c2.07,-3 3.925,-3.619 4.003,-3.645l0.11,0.338l-0.054,-0.169l0.054,0.169c-0.018,0.006 -1.84,0.625 -3.845,3.546c-1.856,2.707 -4.249,7.994 -5.106,17.81Z" style="fill:#ccedd8;fill-rule:nonzero;"/><path d="M98.63,228.809c-0.11,-14.372 1.453,-21.791 2.784,-25.484c1.464,-4.064 2.975,-4.677 3.039,-4.7l0.127,0.33l-0.063,-0.165l0.066,0.165c-0.015,0.005 -1.464,0.628 -2.874,4.607c-1.301,3.674 -2.83,11.037 -2.721,25.244l-0.358,0.003Z" style="fill:#ccedd8;fill-rule:nonzero;"/><path d="M97.771,228.814c-0.431,-12.598 -3.176,-19.544 -5.404,-23.152c-2.396,-3.878 -4.694,-4.809 -4.717,-4.818l0.132,-0.33c0.099,0.039 2.433,0.983 4.891,4.963c2.249,3.645 5.022,10.649 5.456,23.325l-0.358,0.012Z" style="fill:#ccedd8;fill-rule:nonzero;"/><path d="M96.577,228.824c-0.918,-9.752 -3.306,-14.848 -5.146,-17.408c-1.987,-2.759 -3.776,-3.231 -3.793,-3.236l0.086,-0.344c0.077,0.018 1.909,0.491 3.968,3.333c1.879,2.593 4.313,7.754 5.242,17.622l-0.357,0.033Z" style="fill:#ccedd8;fill-rule:nonzero;"/><path d="M95.029,228.849c-1.834,-7.382 -5.429,-11.226 -8.122,-13.151c-2.916,-2.084 -5.433,-2.429 -5.459,-2.433l0.047,-0.352c0.105,0.015 2.616,0.356 5.604,2.484c2.747,1.959 6.415,5.868 8.279,13.369l-0.349,0.083Z" style="fill:#ccedd8;fill-rule:nonzero;"/><path d="M125.664,227.981l3.731,0c-0.642,-7.233 -3.758,-14.327 -13.204,-19.511c-9.281,-5.093 -22.875,-2.296 -6.905,4.072c10.666,4.252 14.023,10.372 16.378,15.439Z" style="fill:#5884c6;fill-rule:nonzero;"/><path d="M136.525,227.981c2.049,-8.964 5.344,-24.754 12.768,-30.086c8.48,-6.09 3.57,-11.498 -5.175,-4.749c-6.905,5.328 -11.377,22.76 -10.148,34.835l2.555,0Z" style="fill:#5884c6;fill-rule:nonzero;"/><path d="M131.567,227.981l2.274,0c1.101,-4.878 1.224,-10.942 1.227,-15.387c0.005,-6.861 -4.317,-23.347 -13.516,-28.828c-9.199,-5.481 -13.367,1.949 0.143,15.104c8.806,8.574 10.04,21.431 9.872,29.111Z" style="fill:#5884c6;fill-rule:nonzero;"/><path d="M116.362,204.468c6.08,4.725 10.113,16.392 12.101,23.513l3.732,0c0.698,-7.58 -3.035,-19.155 -7.439,-24.536c-5.862,-7.161 -17.427,-5.999 -8.394,1.023Z" style="fill:#5884c6;fill-rule:nonzero;"/><path d="M135.329,227.491l-0.417,-0.02c0.005,-0.076 0.517,-7.762 2.917,-15.899c1.411,-4.784 3.191,-8.788 5.288,-11.899c2.635,-3.911 5.788,-6.421 9.369,-7.46l0.134,0.337c-3.48,1.008 -6.554,3.465 -9.138,7.296c-2.078,3.083 -3.844,7.055 -5.246,11.807c-2.391,8.104 -2.902,15.761 -2.907,15.838Z" style="fill:#ccedd8;fill-rule:nonzero;"/><path d="M133.028,227.794l-0.416,-0.035c1.587,-13.295 -3.45,-24.664 -7.956,-31.86c-4.881,-7.798 -10.203,-12.507 -10.255,-12.553l0.3,-0.247c0.055,0.047 5.416,4.792 10.325,12.634c2.883,4.606 5.051,9.365 6.443,14.145c1.739,5.978 2.264,12.006 1.559,17.916Z" style="fill:#ccedd8;fill-rule:nonzero;"/><path d="M129.962,227.788c-0.932,-12.51 -5.415,-19.546 -9.01,-23.246c-3.891,-4.001 -7.608,-5.067 -7.646,-5.077l0.13,-0.338c0.155,0.043 3.85,1.097 7.816,5.166c2.322,2.384 4.248,5.311 5.725,8.702c1.843,4.231 2.987,9.2 3.401,14.77l-0.416,0.023Z" style="fill:#ccedd8;fill-rule:nonzero;"/><path d="M127.035,227.805c-1.859,-9.514 -8.459,-14.495 -13.668,-16.996c-5.648,-2.712 -10.916,-3.178 -10.97,-3.183l0.042,-0.353c0.053,0.005 5.41,0.479 11.134,3.228c3.366,1.616 6.2,3.69 8.427,6.164c2.783,3.093 4.615,6.822 5.448,11.082l-0.413,0.058Z" style="fill:#ccedd8;fill-rule:nonzero;"/><path d="M155.573,235.656c0,1.521 -12.144,2.753 -27.125,2.753c-14.981,0 -27.125,-1.232 -27.125,-2.753c0,-1.52 12.144,-2.753 27.125,-2.753c14.981,0 27.125,1.233 27.125,2.753Z" style="fill:#5884c6;fill-opacity:0.2;fill-rule:nonzero;"/><path d="M91.82,87.211c6.218,6.738 13.081,17.878 13.773,18.946c0.238,0.363 0.964,1.611 1.815,3.086c0.182,0.317 0.374,0.646 0.567,0.975c1.486,2.587 3.097,5.411 3.097,5.411c0,-0 8.022,2.235 11.902,0.148c2.132,-1.157 4.81,-3.199 6.784,-4.81c1.61,-1.305 2.745,-2.314 2.745,-2.314c0,-0 -0.658,-0.726 -1.804,-1.974c-1.418,-1.556 -3.607,-3.927 -6.171,-6.706c-0.091,-0.102 -0.193,-0.204 -0.284,-0.306c-9.235,-9.983 -23.257,-24.959 -25.946,-26.74c-6.127,-4.05 -12.548,-4.719 -13.648,-0.17c-1.1,4.56 0.953,7.704 7.17,14.454Z" style="fill:#ea9657;fill-rule:nonzero;"/><path d="M85.739,182.939c0,-0 1.203,1.407 2.53,2.893c1.588,1.735 3.347,3.573 3.608,3.346c0.328,-0.295 0.714,-1.474 1.157,-2.768c0.625,-1.792 1.372,-3.811 2.281,-3.902c0.169,-0.011 0.169,-0.011 0.441,0.124c0.572,0.284 2.755,1.491 5.177,1.158c3.823,-0.526 7.661,-5.587 11.467,-9.45c2.233,-2.268 12.128,-13.183 16.121,-16.36c5.547,-4.413 27.647,4.81 32.185,6.24c2.167,0.68 7.818,2.234 8.237,2.269c2.326,0.181 -22.338,-68.524 -22.134,-70.226c-0.397,1.01 0.774,-5.061 -0.383,-2.599c-0.692,1.486 -4.927,5.708 -6.992,6.933c-2.677,1.588 -6.429,1.682 -12.015,3.488c-11.238,3.637 -16.386,8.75 -18.757,11.21c-2.366,2.454 -10.908,10.42 -13.914,20.994c-0.705,2.461 -1.306,5.127 -1.771,7.986c-0.204,1.225 -0.374,2.485 -0.511,3.778c-0.034,0.363 -0.079,0.715 -0.113,1.066c-0.057,0.499 -0.125,1.01 -0.182,1.554c-0.034,0.295 -0.068,0.603 -0.102,0.885c-2.223,17.574 -6.126,25.868 -6.33,31.381Z" style="fill:#d88044;fill-rule:nonzero;"/><path d="M85.739,182.939c0,-0 1.203,1.407 2.53,2.893c1.645,0.215 3.358,0.431 4.765,0.578c0.625,-1.792 1.372,-3.811 2.281,-3.902c0.169,-0.011 0.18,-0.011 0.169,-0.011c-1.381,-0.976 -2.941,-2.678 -3.415,-6.081c-1.037,-7.471 -0.873,-17.506 0,-24.858c-2.223,17.574 -6.126,25.868 -6.33,31.381Z" style="fill:#ba6831;fill-rule:nonzero;"/><path d="M83.295,196.393c4.317,1.143 6.139,2.239 9.011,-4.898c0.754,-1.875 0.743,-5.077 1.538,-7.205c-7.075,2.913 -7.29,-0.828 -7.885,-3.438c-0.775,1.04 -1.602,2.196 -5.848,5.932c-2.795,2.457 -2.486,8.109 3.184,9.609Z" style="fill:#f9eddc;fill-rule:nonzero;"/><path d="M126.638,134.701c-0.18,-0.37 0.318,-0.681 0.573,-0.358c6.855,8.662 6.589,21.589 11.089,22.55c6.584,1.406 11.362,3.123 14.126,4.221c0.599,0.238 1.104,-0.498 0.663,-0.97c-3.191,-3.404 -8.757,-9.764 -10.156,-13.226c-1.647,-4.073 -2.425,-17.475 -1.135,-24.77c3.878,-21.909 2.33,-11.299 3.215,-12.479c0,-0 -3.025,8.49 -2.662,13.107c0.567,7.387 1.775,14.653 4.884,22.015c3.222,7.646 3.908,9.502 7.05,11.476c3.307,2.084 10.554,6.16 12.928,9.694c0.212,0.141 1.594,0.037 1.539,0.165c-0.941,2.233 1.224,15.191 -0.419,20.802c-1.643,5.613 -11.914,10.66 -15.83,12.476c-3.542,1.644 -3.649,6.1 -3.93,13.185c-0.282,7.084 0.937,9.506 2.084,13.78c0.976,3.634 2.535,7.493 1.381,8.019c-2.698,1.23 -9.531,2.325 -14.524,-0.571c-4.273,-2.476 -2.01,-11.836 -0.605,-20.556c1.085,-6.745 -1.445,-17.914 0.039,-22.422c0.864,-2.625 4.612,-6.679 3.042,-13.493c-1.089,-4.728 -11.855,-18.586 -12.069,-18.845c-0.023,0.013 -0.045,0.02 -0.068,0.034c0.007,-0.028 0.017,-0.057 0.026,-0.085c-0.227,-0.303 5.435,-9.932 -1.241,-23.749Z" style="fill:#ba6831;fill-rule:nonzero;"/><path d="M147.083,96.813c0.608,3.165 1.835,6.199 3.308,9.053c1.709,3.305 3.792,6.414 6.095,9.332c2.476,3.136 5.218,6.061 8.181,8.741c2.911,2.635 6.041,5.04 9.386,7.099c3.138,1.932 6.484,3.571 10.011,4.66c3.187,0.984 6.555,1.514 9.891,1.222c3.222,-0.281 6.328,-1.372 8.98,-3.233c1.445,-1.015 2.74,-2.233 3.88,-3.579c1.642,-1.94 2.904,-4.167 4.282,-6.295c3.57,-5.52 7.248,-10.972 10.738,-16.542c0.885,-1.412 1.76,-2.832 2.617,-4.264c-0.396,-2.198 -0.836,-4.419 -1.319,-6.646c-4.538,-20.886 -15.519,-45.208 -15.519,-45.208l-0.546,11.537l-5.128,-7.986l-17.392,-0l-15.519,-3.551l-2.983,3.755c-0,-0 -0.193,0.386 -0.545,1.078c-2.688,5.377 -14.789,27.952 -18.771,37.153c-0.076,0.173 0.236,2.255 0.151,2.421c0.056,0.419 0.123,0.837 0.202,1.253Z" style="fill:#f9eddc;fill-rule:nonzero;"/><path d="M139.047,17.917c8.561,-2.961 10.882,-3.427 10.882,-3.427l2.677,9.785c0.216,1.521 4.575,6.742 6.118,9.828c0.17,0.352 0.363,0.624 0.556,0.828c2.065,2.156 5.207,-3.347 7.249,-6.365c0.715,-1.032 1.282,-1.769 1.645,-1.815c1.18,-0.159 6.444,-6.943 8.758,-9.972c0.659,-0.873 1.077,-1.441 1.077,-1.441c0,0 -0.316,-0.249 -0.883,-0.68c-0.557,-0.42 -1.34,-1.01 -2.316,-1.725c-5.003,-3.63 -14.884,-10.324 -22.792,-12.661c-2.427,-0.714 -5.059,0 -6.75,1.884c-3.652,4.095 -8.36,9.847 -9.79,13.398c-0.488,1.202 -0.054,3.616 3.569,2.363Z" style="fill:#ea9657;fill-rule:nonzero;"/><path d="M235.806,17.917c-8.561,-2.961 -10.882,-3.427 -10.882,-3.427l-2.677,9.785c-0.215,1.521 -4.575,6.742 -6.118,9.828c-0.17,0.352 -0.363,0.624 -0.556,0.828c-2.064,2.156 -5.207,-3.347 -7.249,-6.365c-0.714,-1.032 -1.282,-1.769 -1.645,-1.815c-1.179,-0.159 -6.443,-6.943 -8.759,-9.972c-0.658,-0.873 -1.077,-1.441 -1.077,-1.441c0,0 0.317,-0.249 0.886,-0.68c0.556,-0.42 1.337,-1.01 2.314,-1.725c5.003,-3.63 14.884,-10.324 22.792,-12.661c2.428,-0.714 5.059,0 6.75,1.884c3.653,4.095 8.361,9.847 9.79,13.398c0.488,1.202 0.054,3.616 -3.569,2.363Z" style="fill:#ea9657;fill-rule:nonzero;"/><path d="M149.929,14.49c-0,0 0.587,6.534 1.826,9.427c1.305,3.048 5.426,7.1 6.969,10.186c0.17,0.352 0.363,0.624 0.556,0.828c0.329,-0.408 4.855,-4.277 7.249,-6.365c0.703,-0.601 1.214,-1.066 1.395,-1.236c0.783,-0.783 7.295,-5.604 8.51,-8.656c0.227,-0.579 0.384,-1.226 0.498,-1.895c0.113,-0.703 0.17,-1.429 0.194,-2.121c-0.557,-0.42 -1.34,-1.01 -2.316,-1.725c-2.7,-0.057 -17.737,-0.215 -24.881,1.557Z" style="fill:#ba6831;fill-rule:nonzero;"/><path d="M224.924,14.49c-0,0 -0.614,6.534 -1.853,9.427c-1.305,3.048 -5.425,7.1 -6.969,10.186c-0.17,0.352 -0.363,0.624 -0.556,0.828c-0.329,-0.408 -4.855,-4.277 -7.249,-6.365c-0.703,-0.601 -1.214,-1.066 -1.395,-1.236c-0.783,-0.783 -7.295,-5.604 -8.508,-8.656c-0.227,-0.579 -0.386,-1.226 -0.5,-1.895c-0.113,-0.703 -0.17,-1.429 -0.192,-2.121c0.555,-0.42 1.338,-1.01 2.314,-1.725c2.7,-0.057 17.764,-0.215 24.908,1.557Z" style="fill:#d88044;fill-rule:nonzero;"/><path d="M160.641,58.049c3.233,6.262 13.534,21.475 13.534,21.475c0,0 0.09,0.285 0.238,0.75c0.578,1.804 2.099,6.353 3.006,7.555c1.136,1.509 3.494,5.673 9.939,5.673c0.045,0 0.079,-0.023 0.113,-0.023c0.034,0 0.068,0.023 0.114,0.023c6.432,0 8.803,-4.164 9.937,-5.673c0.817,-1.077 2.122,-4.866 2.791,-6.931c0.272,-0.828 0.443,-1.374 0.443,-1.374c0,0 10.313,-15.213 13.546,-21.475c3.086,-5.968 3.335,-21.295 1.702,-27.648c-0.919,-3.551 -3.926,-9.155 -7.987,-13.058c-3.006,-2.893 -6.581,-4.855 -10.302,-4.368c-2.813,0.375 -6.523,0.477 -10.13,0.466c-0.046,-0 -0.08,0.011 -0.114,0.011c-0.034,-0 -0.068,-0.011 -0.113,-0.011c-3.608,0.011 -7.317,-0.091 -10.132,-0.466c-3.743,-0.499 -7.34,1.498 -10.357,4.425c-4.028,3.903 -7.022,9.473 -7.93,13.001c-1.635,6.353 -1.384,21.68 1.702,27.648Z" style="fill:#f9eddc;fill-rule:nonzero;"/><path d="M187.471,77.745c4.472,0.012 8.977,-2.297 12.993,-5.345c0.949,-1.761 2.259,-3.782 3.899,-5.763c7.216,-8.724 1.34,-10.722 -2.949,-15.679c-4.538,-5.253 -9.689,-10.017 -8.838,-19.093c0.794,-8.373 9.949,-14.023 15.441,-14.522c4.061,3.903 7.068,9.507 7.987,13.058c1.615,6.281 1.384,21.319 -1.604,27.427c-0.009,0.037 -0.036,0.099 -0.098,0.221c-3.233,6.262 -13.546,21.475 -13.546,21.475c0,0 -0.171,0.546 -0.443,1.374c-0.669,2.065 -1.974,5.854 -2.791,6.931c-1.134,1.509 -3.505,5.673 -9.937,5.673c-0.046,0 -0.08,-0.023 -0.114,-0.023c-0.034,0 -0.068,0.023 -0.113,0.023c-6.445,0 -8.803,-4.164 -9.939,-5.673c-0.907,-1.202 -2.428,-5.751 -3.006,-7.555c-0.148,-0.465 -0.238,-0.75 -0.238,-0.75c0,0 -10.301,-15.213 -13.534,-21.475c-1.564,-3.022 12.462,19.656 26.83,19.696Z" style="fill:#ea9657;fill-rule:nonzero;"/><path d="M158.936,30.406c0.908,-3.528 3.903,-9.098 7.931,-13.001c5.525,0.783 14.169,6.342 14.941,14.465c0.851,9.076 -4.311,13.841 -8.837,19.093c-2.088,2.416 -4.561,4.141 -5.707,6.275c-1.077,2.019 -0.975,4.424 1.781,8.156c0.295,0.397 0.613,0.817 0.976,1.248c1.452,1.747 2.643,3.54 3.562,5.15c4.198,3.324 9.019,5.934 13.887,5.956c13.999,0.034 -3.359,6.228 -3.745,8.385c-0.386,2.144 -8.735,-4.05 -9.314,-5.855c-0.147,-0.465 -0.238,-0.749 -0.238,-0.749c-0,0 -3.846,-5.683 -7.578,-11.537c-1.612,-2.53 -3.212,-5.094 -4.459,-7.238c-0.59,-1.009 -1.101,-1.928 -1.498,-2.701c-0.068,-0.147 -0.102,-0.204 -0.102,-0.248c-2.984,-6.116 -3.21,-21.125 -1.6,-27.399Z" style="fill:#d88044;fill-rule:nonzero;"/><path d="M168.117,64.182c0,0 3.73,6.017 4.478,7.611c1.682,3.587 4.344,6.553 5.372,9.205c0.634,1.638 1.263,4.775 2.961,7.534c1.128,1.823 3.347,2.948 6.157,2.948l0.775,-0c7.028,-0.363 7.5,-8.901 9.379,-11.108c3.415,-4.008 8.893,-15.973 8.893,-15.973c0,0 -4.707,4.102 -6.684,4.331c-1.426,0.165 -2.687,0.31 -3.724,-0.238c-0.228,-0.114 -0.456,-0.239 -0.673,-0.341c-2.712,-1.357 -4.946,-2.064 -6.906,-2.177l-0.159,0c-0.172,-0.012 -0.343,-0.012 -0.513,-0.012c-0.171,-0 -0.342,-0 -0.513,0.012l-0.172,0c-1.993,0.113 -4.318,0.729 -7.042,2.222c-0.172,0.091 -0.354,0.194 -0.536,0.296c-1.174,0.684 -3.655,0.315 -4.051,0.166c-2.28,-0.854 -7.042,-4.476 -7.042,-4.476Z" style="fill:#9b2727;fill-rule:nonzero;"/><path d="M187.38,63.012c-0,-0 9.778,-5.62 9.547,-8.87c-0.559,-7.91 -17.917,-8.186 -18.908,-0c-0.387,3.2 9.361,8.87 9.361,8.87Z" style="fill:#184f4c;fill-rule:nonzero;"/><path d="M161.64,86.326c0.352,1.396 1.679,2.7 5.775,4.13c4.129,3.12 11.084,2.541 15.622,0.181c0.352,-0.17 0.726,-0.385 1.112,-0.612c7.51,-4.459 10.743,-10.983 11.378,-15.838c0.023,-0.057 0.023,-0.125 0.034,-0.182c0.102,-0.782 0.136,-1.52 0.102,-2.189c-0.034,-0.828 -0.181,-2.348 -0.488,-3.506c-2.7,-1.349 -5.082,-2.223 -7.033,-2.336l-0.159,0c-0.17,-0.012 -0.34,-0.012 -0.51,-0.012c-0.171,-0 -0.341,-0 -0.511,0.012l-0.17,0c-1.985,0.113 -4.493,0.771 -7.181,2.303c0.261,0.975 0.794,2.314 0.885,2.972c0.09,0.658 -0.034,1.531 -0.307,2.371c-0.034,0.113 -0.068,0.215 -0.102,0.317c-0.295,0.783 -0.703,1.521 -1.18,1.986c-4.493,4.425 -6.454,4.062 -10.698,5.809c-4.152,1.713 -6.841,3.528 -6.569,4.594Z" style="fill:#ea5647;fill-rule:nonzero;"/><path d="M180.189,73.62c2.235,-0.919 4.425,-1.271 6.455,-1.294c0.386,-0.011 0.772,0 1.135,0.023c3.279,0.159 6.047,1.112 7.748,1.838c0.005,-0.002 0.006,-0.003 0.01,-0.006c0.122,-0.848 0.163,-1.646 0.126,-2.365c-0.034,-0.828 -0.181,-2.348 -0.488,-3.506c-2.7,-1.349 -5.082,-2.223 -7.033,-2.336l-0.159,0c-0.17,-0.012 -0.34,-0.012 -0.51,-0.012c-0.171,-0 -0.341,-0 -0.511,0.012l-0.17,0c-1.985,0.113 -4.493,0.771 -7.181,2.303c0.261,0.975 0.794,2.314 0.885,2.972c0.09,0.658 -0.034,1.531 -0.307,2.371Z" style="fill:#d33b33;fill-rule:nonzero;"/><path d="M165.104,32.755c-0.87,0.804 -1.037,2.128 -0.397,3.123c0.926,1.439 2.49,3.304 4.491,3.557c2.002,0.254 3.982,-1.161 5.237,-2.323c0.868,-0.804 1.037,-2.128 0.396,-3.123c-0.925,-1.439 -2.49,-3.303 -4.491,-3.557c-2.001,-0.254 -3.981,1.161 -5.236,2.323Z" style="fill:#184f4c;fill-rule:nonzero;"/><path d="M198.527,34.191c-0.601,1.02 -0.38,2.336 0.52,3.104c1.3,1.112 3.335,2.448 5.325,2.114c1.989,-0.333 3.478,-2.258 4.346,-3.733c0.6,-1.02 0.38,-2.336 -0.52,-3.104c-1.301,-1.112 -3.336,-2.447 -5.325,-2.114c-1.989,0.333 -3.479,2.259 -4.346,3.733Z" style="fill:#184f4c;fill-rule:nonzero;"/><path d="M191.251,50.076c-1.3,-0.32 -2.484,0.032 -2.644,0.786c-0.16,0.753 0.764,1.624 2.064,1.944c1.3,0.319 2.485,-0.033 2.646,-0.785c0.16,-0.754 -0.765,-1.625 -2.066,-1.945Z" style="fill:#fff2dd;fill-rule:nonzero;"/><path d="M178.274,88.993c-1.304,0.526 -2.258,1.269 -2.131,1.66c0.128,0.391 1.288,0.28 2.592,-0.246c1.304,-0.525 2.259,-1.268 2.131,-1.659c-0.127,-0.391 -1.288,-0.281 -2.592,0.245Z" style="fill:#fff2dd;fill-rule:nonzero;"/><path d="M171.693,32.226c-0.968,-0.235 -1.89,0.21 -2.058,0.995c-0.17,0.784 0.478,1.61 1.446,1.845c0.968,0.235 1.89,-0.21 2.059,-0.995c0.168,-0.784 -0.48,-1.61 -1.447,-1.845Z" style="fill:#fff2dd;fill-rule:nonzero;"/><path d="M204.76,32.26c-0.953,0.291 -1.528,1.147 -1.288,1.912c0.242,0.766 1.211,1.15 2.163,0.86c0.951,-0.291 1.528,-1.147 1.287,-1.912c-0.242,-0.766 -1.21,-1.151 -2.162,-0.86Z" style="fill:#fff2dd;fill-rule:nonzero;"/><path d="M171.276,127.658c-0.109,0.583 -2.781,0.242 -2.268,-0.942c1.572,-3.622 3.982,-5.888 3.8,-5.324c-0.901,2.791 -1.095,3.941 -1.532,6.266Z" style="fill:#e2cfbc;fill-rule:nonzero;"/><path d="M157.179,134.589c1.339,5.99 2.995,13.059 3.666,14.193c0.703,1.203 5.025,9.938 10.618,17.052c5.729,-0.023 14.284,-2.042 18.447,-3.131c1.52,-0.387 2.45,-0.648 2.45,-0.648c-0,0 0.726,-0.214 1.952,-0.624c2.972,-0.975 8.871,-3.029 14.442,-5.627c2.042,-3.414 -3.787,-39.959 -4.706,-36.645c-0.922,3.325 -10.156,14.682 -14.127,15.09c-5.388,0.567 -15.193,-5.09 -18.578,-6.563c-2.791,-1.215 -4.107,-1.498 -5.389,-1.418l-1.797,-0.947c-4.675,0.284 -7.999,4.685 -6.978,9.268Z" style="fill:#ea9657;fill-rule:nonzero;"/><path d="M187.655,163.398c1.52,-0.386 4.705,-1.254 4.705,-1.254c-0,0 6.794,-2.325 8.019,-2.733c-0.647,-1.18 9.617,-17.575 10.275,-25.822c0.182,-2.212 -5.794,-13.243 -6.695,-14.04c0.831,3.173 2.745,10.2 2.11,13.433c-0.346,1.764 -1.266,3.778 -2.11,4.789c-6.795,8.15 -20.645,18.936 -22.598,19.468c-3.183,0.868 4.808,4.99 6.294,6.159Z" style="fill:#d88044;fill-rule:nonzero;"/><path d="M213.337,167.714c2.269,0.193 9.802,0.525 10.254,-1.362c1.045,-4.362 -3.89,-11.404 1.703,-20.568c4.447,-7.287 1.815,-31.391 -2.666,-52.198c-0.17,-0 -17.137,26.034 -17.137,26.034c0,-0 4.681,9.499 4.25,13.969c-0.76,8.032 -8.284,20.145 -12.617,23.961c-1.371,1.208 15.589,10.118 16.213,10.164Z" style="fill:#f9eddc;fill-rule:nonzero;"/><path d="M166.491,90.275c5.07,4.538 12.038,2.879 16.575,0.519c0.352,-0.17 0.726,-0.385 1.112,-0.612c7.602,-4.515 10.824,-11.142 11.414,-16.02c0.102,-0.782 0.136,-1.52 0.102,-2.189c-0.012,0.408 -0.046,0.828 -0.102,1.27c-0.59,4.879 -3.812,11.504 -11.414,16.02c-0.386,0.227 -0.76,0.442 -1.112,0.612c-4.537,2.36 -12.887,3.45 -16.031,-0.344c-2.221,-0 -5.688,-1.974 -5.13,-3.977c-0.671,0.771 -0.712,3.121 4.586,4.721Z" style="fill:#d33b33;fill-rule:nonzero;"/><path d="M166.568,129.618l2.44,-2.902l2.268,0.942c-1.745,8.065 2.289,15.385 2.289,15.385c-0,-0 -3.121,-0.851 -3.31,-1.57c-0.189,-0.717 -3.403,-5.048 -3.33,-5.332c0.073,-0.283 -0.357,-6.523 -0.357,-6.523Z" style="fill:#d88044;fill-rule:nonzero;"/><path d="M167.035,90.45c0.123,-0 0.246,-0.033 0.357,-0.102c0.083,-0.05 8.292,-5.096 14.851,-8.859c3.808,-2.186 5.217,-6.165 5.727,-9.12c0.064,-0.371 -0.185,-0.724 -0.556,-0.788c-0.373,-0.062 -0.724,0.184 -0.788,0.556c-0.462,2.666 -1.713,6.246 -5.063,8.168c-6.575,3.773 -14.803,8.831 -14.886,8.881c-0.32,0.198 -0.42,0.618 -0.223,0.939c0.128,0.21 0.353,0.325 0.581,0.325Z" style="fill:#d33b33;fill-rule:nonzero;"/><path d="M186.731,72.258c0.386,-0.012 0.773,0 1.136,0.022c0.465,-2.688 0.237,-4.844 0.237,-4.935c-0.034,-0.306 -0.305,-0.533 -0.624,-0.499c-0.318,0.034 -0.543,0.307 -0.509,0.624c-0,0.023 0.214,2.122 -0.228,4.686c-0.012,0.034 -0.012,0.068 -0.012,0.102Z" style="fill:#9b2727;fill-rule:nonzero;"/><path d="M145.584,146.294c3.074,5.538 5.139,7.307 8.701,9.973c0.862,0.635 2.042,1.384 3.336,2.19c3.709,2.303 8.452,5.161 9.848,7.907c2.132,4.22 0.941,16.439 1.179,18.912c0.023,0.272 0.148,0.59 0.329,0.93c0.828,1.52 3.018,3.54 5.003,3.732c0.193,0.023 0.375,0.023 0.556,0.012c0.034,0.136 0.091,0.272 0.17,0.408c0.885,1.566 4.504,2.643 6.308,1.203c0.181,-0.136 0.731,-0.53 0.731,-0.53c0,-0 0.358,0.042 0.437,0.121c1.305,1.328 4.356,0.738 5.254,-1.508c0.044,-0.103 0.078,-0.216 0.112,-0.329c0.115,0.011 0.238,0.011 0.353,0.011c1.371,-0.011 2.29,-0.828 2.859,-2.008c0.68,-1.384 0.873,-3.267 0.782,-4.946c-0.147,-2.507 -1.249,-11.539 -3.325,-17.188c-0.157,-0.431 -0.329,-0.908 -0.51,-1.429c-1.634,-4.697 -4.266,-12.628 -7.76,-16.201c-2.904,-2.973 -8.792,-8.838 -11.389,-13.046c-1.749,-2.848 1.077,-9.497 1.077,-9.497l-19.184,-28.26l-0.874,-1.293l-1.316,-5.15c-0.034,0.056 -1.579,2.8 -1.647,2.993c-0.692,1.906 -1.404,4.494 -2.164,7.761c-1.522,6.49 -2.076,17.086 -2.099,21.714c-0.058,8.714 -0.648,16.53 3.233,23.518Z" style="fill:#f9eddc;fill-rule:nonzero;"/><path d="M168.977,186.206c0.828,1.52 3.018,3.54 5.003,3.732c-1.248,-1.701 -3.596,-3.55 -5.003,-3.732Z" style="fill:#ba6831;fill-rule:nonzero;"/><path d="M218.594,167.813c-3.301,1.56 -9.255,1.932 -10.492,-0.549c-3.055,0.638 -7.842,-1.064 -8.42,-4.751c-2.145,-0.283 -3.318,-3.54 -2.558,-4.963c0.478,-1.1 4.146,1.703 2.655,3.645c1.51,-0.142 4.843,-2.416 8.899,2.736c5.2,-2.197 6.763,-0.349 8.687,2.511c0.387,-0.333 0.799,-1.745 1.229,-1.844c2.427,-0.561 4.903,1.363 4.997,1.754c-0.588,0.884 -1.586,1.743 -4.997,1.461Z" style="fill:#ba6831;fill-rule:nonzero;"/><path d="M174.706,190.358c0.885,1.566 4.504,2.643 6.308,1.203c0.181,-0.136 0.582,-0.423 0.582,-0.423c-0,-0 -4.768,-1.778 -6.89,-0.78Z" style="fill:#ba6831;fill-rule:nonzero;"/><path d="M216.254,167.842c0.157,-0.043 0.377,-0.159 0.555,-0.266c0.187,-0.114 0.368,-0.25 0.538,-0.409c0.342,-0.317 0.634,-0.749 0.808,-1.262l0.071,-0.206c0.175,-0.512 -0.1,-1.07 -0.612,-1.245c-0.512,-0.173 -1.07,0.1 -1.244,0.612c-0.077,0.227 -0.066,0.464 0.014,0.671c0.095,0.244 0.131,0.548 0.068,0.876c-0.029,0.163 -0.08,0.332 -0.15,0.498c-0.078,0.173 -0.141,0.313 -0.282,0.507c-0.051,0.071 -0.035,0.168 0.034,0.219c0.04,0.029 0.089,0.036 0.132,0.024l0.068,-0.019Z" style="fill:#e2cfbc;fill-rule:nonzero;"/><path d="M181.967,190.891c0.056,0.091 0.136,0.182 0.215,0.261c1.305,1.328 4.356,0.738 5.254,-1.508c-1.136,-0.125 -3.983,-0.08 -5.469,1.247Z" style="fill:#ba6831;fill-rule:nonzero;"/><path d="M199.71,162.089c0.204,-0.231 0.453,-0.457 0.7,-0.655c0.252,-0.199 0.513,-0.381 0.78,-0.547c0.452,-0.281 0.59,-0.875 0.309,-1.327c-0.281,-0.451 -0.875,-0.59 -1.327,-0.309c-0.208,0.131 -0.35,0.328 -0.415,0.547l-0.016,0.056c-0.103,0.354 -0.186,0.711 -0.248,1.066c-0.06,0.361 -0.1,0.707 -0.095,1.082c0.001,0.092 0.076,0.166 0.17,0.165c0.048,0 0.092,-0.022 0.122,-0.056l0.02,-0.022Z" style="fill:#e2cfbc;fill-rule:nonzero;"/><path d="M187.901,189.326c1.371,-0.011 2.29,-0.828 2.859,-2.008c-0.932,0.374 -2.316,1.066 -2.859,2.008Z" style="fill:#ba6831;fill-rule:nonzero;"/><path d="M174.69,190.942l0.6,-0.787l0.068,-0.089c0.394,-0.519 0.295,-1.258 -0.222,-1.653c-0.519,-0.393 -1.258,-0.294 -1.653,0.224c-0.337,0.443 -0.312,1.05 0.028,1.463l0.692,0.842l0.008,0.009c0.106,0.13 0.299,0.149 0.431,0.042c0.018,-0.016 0.035,-0.034 0.048,-0.051Z" style="fill:#e2cfbc;fill-rule:nonzero;"/><path d="M182.234,191.82l0.599,-0.786l0.069,-0.091c0.395,-0.517 0.295,-1.256 -0.223,-1.651c-0.517,-0.394 -1.257,-0.295 -1.651,0.224c-0.338,0.443 -0.312,1.049 0.026,1.461l0.694,0.843l0.007,0.01c0.107,0.129 0.3,0.149 0.43,0.041c0.018,-0.015 0.035,-0.033 0.049,-0.051Z" style="fill:#e2cfbc;fill-rule:nonzero;"/><path d="M188.168,190.005l0.599,-0.786l0.068,-0.091c0.395,-0.517 0.295,-1.256 -0.222,-1.651c-0.518,-0.394 -1.258,-0.295 -1.652,0.223c-0.338,0.444 -0.312,1.049 0.028,1.462l0.692,0.843l0.007,0.008c0.107,0.131 0.3,0.15 0.431,0.043c0.018,-0.015 0.035,-0.033 0.049,-0.051Z" style="fill:#e2cfbc;fill-rule:nonzero;"/><path d="M206.88,166.503c0.004,0.012 -0.015,0.035 -0.007,0.034l0.034,-0.008l0.078,-0.018l0.165,-0.042l0.34,-0.101c0.228,-0.074 0.46,-0.158 0.691,-0.267c0.46,-0.218 0.943,-0.507 1.37,-1.052l0.379,-0.484c0.499,-0.635 0.387,-1.554 -0.249,-2.052c-0.635,-0.498 -1.554,-0.386 -2.052,0.249c-0.303,0.387 -0.377,0.889 -0.247,1.327c0.07,0.234 -0.008,0.609 -0.17,0.972c-0.079,0.184 -0.18,0.368 -0.292,0.552l-0.177,0.276l-0.097,0.14l-0.149,0.203c-0.076,0.107 -0.05,0.252 0.057,0.328c0.105,0.075 0.252,0.049 0.326,-0.057Z" style="fill:#e2cfbc;fill-rule:nonzero;"/></svg>
