<?xml version="1.0" encoding="UTF-8" standalone="no"?>
<!DOCTYPE svg PUBLIC "-//W3C//DTD SVG 1.1//EN" "https://www.w3.org/Graphics/SVG/1.1/DTD/svg11.dtd">
<svg width="100%" height="100%" viewBox="0 0 450 133" fill="#fff" version="1.1" xmlns="http://www.w3.org/2000/svg" xml:space="preserve" style="fill-rule:evenodd;clip-rule:evenodd;stroke-linejoin:round;stroke-miterlimit:2;">
    <g transform="matrix(1,0,0,1,0,-74.367)">
						<path d="M12.363,101.154L159.602,101.154C166.69,101.154 172.376,107.088 171.964,114.176C171.882,115.288 171.841,116.442 171.841,117.555C171.841,146.896 195.783,170.962 225.165,171.126C254.876,171.25 278.984,147.225 278.984,117.555C278.984,116.442 278.942,115.33 278.901,114.217C278.448,107.129 284.135,101.154 291.223,101.154L437.637,101.154C444.478,101.154 450,106.676 450,113.516L450,152.253C450,169.56 435.989,183.571 418.681,183.571L31.319,183.571C14.011,183.571 0,169.56 0,152.253L0,113.516C0,106.676 5.522,101.154 12.363,101.154Z"/>
        <g transform="matrix(2.38356,0,0,1.55882,-107.26,54.2353)">
							<rect x="45" y="64" width="73" height="34"/>
						</g>
        <g transform="matrix(2.13699,0,0,0.882353,38.8356,120.529)">
							<rect x="45" y="64" width="73" height="34"/>
						</g>
        <g transform="matrix(2.38356,0,0,1.55882,168.74,54.2353)">
							<rect x="45" y="64" width="73" height="34"/>
						</g>
        <circle cx="225" cy="117.637" r="41.209"/>
					</g>
</svg>
